<svg xmlns="http://www.w3.org/2000/svg" viewBox="0 0 32 32" width="32" height="32">
  <!-- Orange rounded square background -->
  <rect width="32" height="32" rx="8" fill="#F58220"/>
  <!-- White "C" letter shaped like the Chips brand -->
  <path
    d="M20 8.5C17.5 7.2 14.5 7.5 12.3 9C9.5 11 8 14.2 8.5 17.5C9 20.8 11.5 23.5 14.8 24.5C17.2 25.2 19.8 24.8 21.8 23.5C22.3 23.2 22.8 22.8 23.2 22.3L20.5 19.8C19.5 20.8 18.2 21.3 16.8 21.2C14.5 21 12.5 19.2 12.1 16.9C11.7 14.6 12.9 12.3 15 11.3C16.2 10.7 17.6 10.7 18.8 11.2C19.4 11.5 19.9 11.9 20.3 12.4L23 9.9C22.2 9.3 21.1 8.8 20 8.5Z"
    fill="white"
  />
</svg>
